<svg xmlns="http://www.w3.org/2000/svg" width="24" height="24" viewBox="0 0 24 24" fill="none">
  <path d="M20.52 3.48A11.94 11.94 0 0 0 12.06 0C5.52 0 .22 5.28.22 11.8c0 2.07.54 4.07 1.57 5.84L0 24l6.48-1.7a11.63 11.63 0 0 0 5.58 1.44h.01c6.54 0 11.86-5.28 11.86-11.8 0-3.16-1.25-6.12-3.41-8.46ZM12.06 21.3h-.01c-1.8 0-3.56-.48-5.1-1.39l-.37-.22-3.85 1.01 1.03-3.75-.24-.39A9.74 9.74 0 0 1 2 11.8C2 6.34 6.61 1.9 12.06 1.9c2.52 0 4.89.98 6.67 2.76a9.37 9.37 0 0 1 2.77 6.63c0 5.46-4.61 9.99-9.44 10.02Zm5.48-7.46c-.3-.15-1.78-.88-2.06-.98-.27-.1-.47-.15-.67.15-.2.29-.77.98-.95 1.18-.18.19-.35.22-.65.07-.3-.15-1.26-.46-2.4-1.47-.89-.77-1.48-1.71-1.65-2-.17-.29-.02-.45.13-.6.13-.13.3-.34.45-.51.15-.18.2-.29.3-.49.1-.2.05-.37-.02-.52-.07-.15-.67-1.61-.92-2.2-.24-.58-.49-.5-.67-.5-.17 0-.37-.02-.57-.02-.2 0-.52.07-.8.37-.27.29-1.05 1.03-1.05 2.52 0 1.49 1.08 2.94 1.23 3.14.15.2 2.12 3.4 5.15 4.76.72.31 1.29.49 1.73.63.73.23 1.4.2 1.93.12.59-.09 1.78-.73 2.04-1.44.25-.71.25-1.32.17-1.44-.07-.12-.27-.2-.57-.35Z" fill="#25D366"/>
</svg>

