<svg xmlns="http://www.w3.org/2000/svg" width="96" height="96" viewBox="0 0 96 96" fill="none">
  <defs>
    <linearGradient id="g1" x1="0" y1="0" x2="1" y2="1">
      <stop offset="0" stop-color="#2563EB"/>
      <stop offset="1" stop-color="#60A5FA"/>
    </linearGradient>
  </defs>
  <path d="M48 10c14 0 26 8 26 18v16c0 10-6 22-26 32-20-10-26-22-26-32V28c0-10 12-18 26-18z" fill="url(#g1)" stroke="#1E40AF" stroke-width="2"/>
  <path d="M30 34h36v6H30z" fill="#EFF6FF"/>
  <path d="M38 44h20v10H38z" fill="#DBEAFE"/>
  <circle cx="48" cy="54" r="5" fill="#1E40AF"/>
  <path d="M48 76c-6-3-11-6-15-9 5 1 10 1 15 1s10 0 15-1c-4 3-9 6-15 9z" fill="#1E3A8A" opacity=".25"/>
</svg>

